<svg width="22" height="22" viewBox="0 0 22 22" fill="none" xmlns="http://www.w3.org/2000/svg">
<path d="M21.1719 11.0156C21.1719 16.6348 16.5781 21.1875 11 21.1875C5.38086 21.1875 0.828125 16.6348 0.828125 11.0156C0.828125 5.4375 5.38086 0.84375 11 0.84375C16.5781 0.84375 21.1719 5.4375 21.1719 11.0156ZM9.81055 16.4297L17.3574 8.88281C17.6035 8.63672 17.6035 8.18555 17.3574 7.93945L16.4141 7.03711C16.168 6.75 15.7578 6.75 15.5117 7.03711L9.35938 13.1895L6.44727 10.3184C6.20117 10.0312 5.79102 10.0312 5.54492 10.3184L4.60156 11.2207C4.35547 11.4668 4.35547 11.918 4.60156 12.1641L8.86719 16.4297C9.11328 16.6758 9.56445 16.6758 9.81055 16.4297Z" fill="#835AA2"/>
</svg>
