<svg width="32" height="33" viewBox="0 0 32 33" fill="none" xmlns="http://www.w3.org/2000/svg">
<rect y="0.867188" width="32" height="32" rx="16" fill="#835AA2"/>
<path d="M23.75 16.8672C23.75 20.7422 20.9062 23.9609 17.1875 24.5234V19.1172H19L19.3438 16.8672H17.1875V15.4297C17.1875 14.8047 17.5 14.2109 18.4688 14.2109H19.4375V12.3047C19.4375 12.3047 18.5625 12.1484 17.6875 12.1484C15.9375 12.1484 14.7812 13.2422 14.7812 15.1797V16.8672H12.8125V19.1172H14.7812V24.5234C11.0625 23.9609 8.25 20.7422 8.25 16.8672C8.25 12.5859 11.7188 9.11719 16 9.11719C20.2812 9.11719 23.75 12.5859 23.75 16.8672Z" fill="white"/>
</svg>
