<svg width="32" height="33" viewBox="0 0 32 33" fill="none" xmlns="http://www.w3.org/2000/svg">
<rect y="0.867188" width="32" height="32" rx="16" fill="#835AA2"/>
<path d="M16 13.2734C17.9688 13.2734 19.5938 14.8984 19.5938 16.8672C19.5938 18.8672 17.9688 20.4609 16 20.4609C14 20.4609 12.4062 18.8672 12.4062 16.8672C12.4062 14.8984 14 13.2734 16 13.2734ZM16 19.2109C17.2812 19.2109 18.3125 18.1797 18.3125 16.8672C18.3125 15.5859 17.2812 14.5547 16 14.5547C14.6875 14.5547 13.6562 15.5859 13.6562 16.8672C13.6562 18.1797 14.7188 19.2109 16 19.2109ZM20.5625 13.1484C20.5625 13.6172 20.1875 13.9922 19.7188 13.9922C19.25 13.9922 18.875 13.6172 18.875 13.1484C18.875 12.6797 19.25 12.3047 19.7188 12.3047C20.1875 12.3047 20.5625 12.6797 20.5625 13.1484ZM22.9375 13.9922C23 15.1484 23 18.6172 22.9375 19.7734C22.875 20.8984 22.625 21.8672 21.8125 22.7109C21 23.5234 20 23.7734 18.875 23.8359C17.7188 23.8984 14.25 23.8984 13.0938 23.8359C11.9688 23.7734 11 23.5234 10.1562 22.7109C9.34375 21.8672 9.09375 20.8984 9.03125 19.7734C8.96875 18.6172 8.96875 15.1484 9.03125 13.9922C9.09375 12.8672 9.34375 11.8672 10.1562 11.0547C11 10.2422 11.9688 9.99219 13.0938 9.92969C14.25 9.86719 17.7188 9.86719 18.875 9.92969C20 9.99219 21 10.2422 21.8125 11.0547C22.625 11.8672 22.875 12.8672 22.9375 13.9922ZM21.4375 20.9922C21.8125 20.0859 21.7188 17.8984 21.7188 16.8672C21.7188 15.8672 21.8125 13.6797 21.4375 12.7422C21.1875 12.1484 20.7188 11.6484 20.125 11.4297C19.1875 11.0547 17 11.1484 16 11.1484C14.9688 11.1484 12.7812 11.0547 11.875 11.4297C11.25 11.6797 10.7812 12.1484 10.5312 12.7422C10.1562 13.6797 10.25 15.8672 10.25 16.8672C10.25 17.8984 10.1562 20.0859 10.5312 20.9922C10.7812 21.6172 11.25 22.0859 11.875 22.3359C12.7812 22.7109 14.9688 22.6172 16 22.6172C17 22.6172 19.1875 22.7109 20.125 22.3359C20.7188 22.0859 21.2188 21.6172 21.4375 20.9922Z" fill="white"/>
</svg>
