<svg width="32" height="33" viewBox="0 0 32 33" fill="none" xmlns="http://www.w3.org/2000/svg">
<rect y="0.867188" width="32" height="32" rx="16" fill="#835AA2"/>
<path d="M22 9.86719C22.5312 9.86719 23 10.3359 23 10.8984V22.8672C23 23.4297 22.5312 23.8672 22 23.8672H9.96875C9.4375 23.8672 9 23.4297 9 22.8672V10.8984C9 10.3359 9.4375 9.86719 9.96875 9.86719H22ZM13.2188 21.8672V15.2109H11.1562V21.8672H13.2188ZM12.1875 14.2734C12.8438 14.2734 13.375 13.7422 13.375 13.0859C13.375 12.4297 12.8438 11.8672 12.1875 11.8672C11.5 11.8672 10.9688 12.4297 10.9688 13.0859C10.9688 13.7422 11.5 14.2734 12.1875 14.2734ZM21 21.8672V18.2109C21 16.4297 20.5938 15.0234 18.5 15.0234C17.5 15.0234 16.8125 15.5859 16.5312 16.1172H16.5V15.2109H14.5312V21.8672H16.5938V18.5859C16.5938 17.7109 16.75 16.8672 17.8438 16.8672C18.9062 16.8672 18.9062 17.8672 18.9062 18.6172V21.8672H21Z" fill="white"/>
</svg>
