<svg width="41" height="42" viewBox="0 0 41 42" fill="none" xmlns="http://www.w3.org/2000/svg">
<g clip-path="url(#clip0_16_4409)">
<path d="M29.6016 5.57422H2.76562C2.14062 5.57422 1.60677 5.79557 1.16406 6.23828C0.721354 6.68099 0.5 7.21484 0.5 7.83984V23.9336C0.5 24.5586 0.721354 25.0924 1.16406 25.5352C1.60677 25.9779 2.14062 26.1992 2.76562 26.1992H4.48438V32.1758C4.48438 32.3581 4.53646 32.5339 4.64062 32.7031C4.74479 32.8724 4.88802 32.9831 5.07031 33.0352C5.1224 33.0612 5.18099 33.0807 5.24609 33.0938C5.3112 33.1068 5.36979 33.1133 5.42188 33.1133C5.55208 33.1133 5.67578 33.0938 5.79297 33.0547C5.91016 33.0156 6.00781 32.944 6.08594 32.8398L12.7656 26.1992H14.0938C14.3542 26.1992 14.5755 26.1081 14.7578 25.9258C14.9401 25.7435 15.0312 25.5221 15.0312 25.2617C15.0312 25.0013 14.9401 24.7734 14.7578 24.5781C14.5755 24.3828 14.3542 24.2852 14.0938 24.2852C14.0938 24.2852 13.8008 24.2852 13.2148 24.2852C12.6289 24.2852 12.3229 24.2982 12.2969 24.3242C12.1927 24.3242 12.0885 24.3438 11.9844 24.3828C11.8802 24.4219 11.7891 24.4935 11.7109 24.5977L6.39844 29.9102C6.39844 29.9102 6.39193 29.1224 6.37891 27.5469C6.36589 25.9714 6.35938 25.1706 6.35938 25.1445C6.35938 24.9102 6.26823 24.7083 6.08594 24.5391C5.90365 24.3698 5.68229 24.2852 5.42188 24.2852H2.76562C2.66146 24.2852 2.57031 24.2526 2.49219 24.1875C2.41406 24.1224 2.375 24.0378 2.375 23.9336V7.83984C2.375 7.73568 2.41406 7.65104 2.49219 7.58594C2.57031 7.52083 2.66146 7.48828 2.76562 7.48828H29.6016C29.6797 7.48828 29.7578 7.52083 29.8359 7.58594C29.9141 7.65104 29.9531 7.73568 29.9531 7.83984V14.0117C29.9531 14.2721 30.0443 14.4935 30.2266 14.6758C30.4089 14.8581 30.6302 14.9492 30.8906 14.9492C31.151 14.9492 31.3724 14.8581 31.5547 14.6758C31.737 14.4935 31.8281 14.2721 31.8281 14.0117V7.83984C31.8281 7.21484 31.6068 6.68099 31.1641 6.23828C30.7214 5.79557 30.2005 5.57422 29.6016 5.57422ZM38.2344 17.1367H19.4844C18.8594 17.1367 18.3255 17.3581 17.8828 17.8008C17.4401 18.2435 17.2188 18.7643 17.2188 19.3633V30.3789C17.2188 30.9779 17.4401 31.4987 17.8828 31.9414C18.3255 32.3841 18.8594 32.6055 19.4844 32.6055H31.2422L35.9688 37.3711C36.0729 37.4753 36.1836 37.5469 36.3008 37.5859C36.418 37.625 36.5417 37.6445 36.6719 37.6445C36.724 37.6445 36.7826 37.638 36.8477 37.625C36.9128 37.612 36.9714 37.5924 37.0234 37.5664C37.2057 37.5143 37.349 37.4036 37.4531 37.2344C37.5573 37.0651 37.6094 36.8893 37.6094 36.707V32.6055H38.2344C38.8594 32.6055 39.3932 32.3841 39.8359 31.9414C40.2786 31.4987 40.5 30.9779 40.5 30.3789V19.3633C40.5 18.7643 40.2786 18.2435 39.8359 17.8008C39.3932 17.3581 38.8594 17.1367 38.2344 17.1367ZM38.625 30.3789C38.625 30.457 38.5859 30.5352 38.5078 30.6133C38.4297 30.6914 38.3385 30.7305 38.2344 30.7305H36.6719C36.4115 30.7305 36.1901 30.8151 36.0078 30.9844C35.8255 31.1536 35.7344 31.3555 35.7344 31.5898C35.7083 31.6159 35.6953 32.0977 35.6953 33.0352C35.6953 33.9727 35.6953 34.4414 35.6953 34.4414L32.2969 31.0039C32.2969 31.0039 32.2839 31.0039 32.2578 31.0039C32.2578 31.0039 32.2578 30.9974 32.2578 30.9844C32.2578 30.9714 32.2448 30.9648 32.2188 30.9648C32.1406 30.8867 32.0495 30.8281 31.9453 30.7891C31.8411 30.75 31.737 30.7305 31.6328 30.7305H19.4844C19.3802 30.7305 19.2891 30.6914 19.2109 30.6133C19.1328 30.5352 19.0938 30.457 19.0938 30.3789V19.3633C19.0938 19.2852 19.1328 19.207 19.2109 19.1289C19.2891 19.0508 19.3802 19.0117 19.4844 19.0117H38.2344C38.3385 19.0117 38.4297 19.0508 38.5078 19.1289C38.5859 19.207 38.625 19.2852 38.625 19.3633V30.3789ZM28.8594 23.9336C28.599 23.9336 28.3776 24.0247 28.1953 24.207C28.013 24.3893 27.9219 24.6107 27.9219 24.8711C27.9219 25.1315 28.013 25.3529 28.1953 25.5352C28.3776 25.7174 28.599 25.8086 28.8594 25.8086C29.1198 25.8086 29.3411 25.7174 29.5234 25.5352C29.7057 25.3529 29.7969 25.1315 29.7969 24.8711C29.7969 24.6107 29.7057 24.3893 29.5234 24.207C29.3411 24.0247 29.1198 23.9336 28.8594 23.9336ZM24.7578 11.8242C24.7578 11.8242 23.8594 11.8242 22.0625 11.8242C20.2917 11.8242 18.332 11.8242 16.1836 11.8242C14.0352 11.8242 12.0625 11.8242 10.2656 11.8242C8.46875 11.8242 7.57031 11.8242 7.57031 11.8242C7.3099 11.8242 7.08854 11.9154 6.90625 12.0977C6.72396 12.2799 6.63281 12.5013 6.63281 12.7617C6.63281 13.0221 6.72396 13.2435 6.90625 13.4258C7.08854 13.6081 7.3099 13.6992 7.57031 13.6992H24.7578C25.0182 13.6992 25.2396 13.6081 25.4219 13.4258C25.6042 13.2435 25.6953 13.0221 25.6953 12.7617C25.6953 12.5013 25.6042 12.2799 25.4219 12.0977C25.2396 11.9154 25.0182 11.8242 24.7578 11.8242ZM14.0938 18.0742H7.57031C7.3099 18.0742 7.08854 18.1654 6.90625 18.3477C6.72396 18.5299 6.63281 18.7513 6.63281 19.0117C6.63281 19.2721 6.72396 19.4935 6.90625 19.6758C7.08854 19.8581 7.3099 19.9492 7.57031 19.9492H14.0938C14.3542 19.9492 14.5755 19.8581 14.7578 19.6758C14.9401 19.4935 15.0312 19.2721 15.0312 19.0117C15.0312 18.7513 14.9401 18.5299 14.7578 18.3477C14.5755 18.1654 14.3542 18.0742 14.0938 18.0742ZM24.4844 23.9336C24.224 23.9336 24.0026 24.0247 23.8203 24.207C23.638 24.3893 23.5469 24.6107 23.5469 24.8711C23.5469 25.1315 23.638 25.3529 23.8203 25.5352C24.0026 25.7174 24.224 25.8086 24.4844 25.8086C24.7448 25.8086 24.9661 25.7174 25.1484 25.5352C25.3307 25.3529 25.4219 25.1315 25.4219 24.8711C25.4219 24.6107 25.3307 24.3893 25.1484 24.207C24.9661 24.0247 24.7448 23.9336 24.4844 23.9336ZM33.2344 23.9336C32.974 23.9336 32.7526 24.0247 32.5703 24.207C32.388 24.3893 32.2969 24.6107 32.2969 24.8711C32.2969 25.1315 32.388 25.3529 32.5703 25.5352C32.7526 25.7174 32.974 25.8086 33.2344 25.8086C33.4948 25.8086 33.7161 25.7174 33.8984 25.5352C34.0807 25.3529 34.1719 25.1315 34.1719 24.8711C34.1719 24.6107 34.0807 24.3893 33.8984 24.207C33.7161 24.0247 33.4948 23.9336 33.2344 23.9336Z" fill="#835AA2"/>
</g>
<defs>
<clipPath id="clip0_16_4409">
<rect width="40" height="41" fill="white" transform="matrix(1 0 0 -1 0.5 41.6211)"/>
</clipPath>
</defs>
</svg>
