<svg width="62" height="63" viewBox="0 0 62 63" fill="none" xmlns="http://www.w3.org/2000/svg">
<rect y="0.700195" width="62" height="62" rx="3" fill="#835AA2"/>
<g clip-path="url(#clip0_2015_2701)">
<path d="M43.1449 37.2373C42.7074 36.7998 42.2357 36.4648 41.7298 36.2324C41.224 36 40.6976 35.8838 40.1507 35.8838C39.6039 35.8838 39.0775 36 38.5716 36.2324C38.0658 36.4648 37.5804 36.7998 37.1156 37.2373L34.3265 40.0264C34.2171 39.9717 34.1009 39.917 33.9779 39.8623C33.8548 39.8076 33.7386 39.7393 33.6292 39.6572C33.4925 39.6025 33.349 39.5342 33.1986 39.4521C33.0482 39.3701 32.9046 39.2881 32.7679 39.2061C31.4554 38.3857 30.1976 37.4219 28.9945 36.3145C27.7914 35.207 26.6156 33.9561 25.4671 32.5615C24.9203 31.8506 24.4554 31.1943 24.0726 30.5928C23.6898 29.9912 23.3617 29.3896 23.0882 28.7881C23.4437 28.46 23.7923 28.125 24.1341 27.7832C24.4759 27.4414 24.8109 27.1064 25.139 26.7783C25.2484 26.6416 25.3714 26.5117 25.5081 26.3887C25.6449 26.2656 25.7679 26.1357 25.8773 25.999C26.807 25.0693 27.2718 24.0508 27.2718 22.9434C27.2718 21.8359 26.807 20.8174 25.8773 19.8877L23.4574 17.4678C23.3206 17.3311 23.1839 17.1875 23.0472 17.0371C22.9105 16.8867 22.7738 16.7432 22.6371 16.6064C22.3636 16.333 22.0902 16.0596 21.8167 15.7861C21.5433 15.5127 21.2699 15.2393 20.9964 14.9658C20.5589 14.5283 20.0873 14.2002 19.5814 13.9814C19.0755 13.7627 18.5492 13.6533 18.0023 13.6533C17.4554 13.6533 16.929 13.7627 16.4232 13.9814C15.9173 14.2002 15.4456 14.5283 15.0081 14.9658C15.0081 14.9658 14.9945 14.9658 14.9671 14.9658L11.973 18.042C11.3988 18.5889 10.9544 19.2109 10.64 19.9082C10.3255 20.6055 10.1273 21.3506 10.0453 22.1436C9.93588 23.4287 10.0248 24.6455 10.3119 25.7939C10.599 26.9424 10.8929 27.9131 11.1937 28.7061C11.9046 30.6475 12.8138 32.541 13.9212 34.3867C15.0287 36.2324 16.3753 38.1123 17.9613 40.0264C18.9456 41.2021 19.971 42.2959 21.0374 43.3076C22.1039 44.3467 23.2181 45.3242 24.3802 46.2402C25.5423 47.1562 26.7386 47.9971 27.9691 48.7627C29.2269 49.5557 30.5257 50.2666 31.8656 50.8955C32.8773 51.3877 34.0462 51.873 35.3724 52.3516C36.6986 52.8301 38.1273 53.124 39.6585 53.2334C39.7406 53.2334 39.8294 53.2334 39.9251 53.2334C40.0208 53.2334 40.1234 53.2334 40.2328 53.2334C41.2445 53.2334 42.181 53.0488 43.0423 52.6797C43.9037 52.3105 44.6624 51.7568 45.3187 51.0186C45.346 51.0186 45.3597 51.0186 45.3597 51.0186C45.3597 51.0186 45.3597 51.0049 45.3597 50.9775C45.6058 50.7041 45.8587 50.4375 46.1185 50.1777C46.3783 49.918 46.6449 49.6514 46.9183 49.3779C47.1097 49.2139 47.3011 49.0361 47.4925 48.8447C47.6839 48.6533 47.8753 48.4482 48.0667 48.2295C48.5042 47.792 48.8392 47.3135 49.0716 46.7939C49.304 46.2744 49.4203 45.7412 49.4203 45.1943C49.4203 44.6475 49.304 44.1143 49.0716 43.5947C48.8392 43.0752 48.4906 42.583 48.0257 42.1182L43.1449 37.2373ZM46.3441 46.5889C46.1527 46.7803 45.9681 46.958 45.7904 47.1221C45.6126 47.2861 45.4281 47.4639 45.2367 47.6553C44.9632 47.9287 44.6761 48.2158 44.3753 48.5166C44.0746 48.8174 43.7874 49.1182 43.514 49.4189C43.0765 49.9111 42.5843 50.2734 42.0374 50.5059C41.4906 50.7383 40.8753 50.8545 40.1917 50.8545C40.1371 50.8545 40.0755 50.8545 40.0072 50.8545C39.9388 50.8545 39.8636 50.8545 39.7816 50.8545C38.4691 50.7451 37.2181 50.4785 36.0287 50.0547C34.8392 49.6309 33.7933 49.2002 32.891 48.7627C31.6332 48.1611 30.4164 47.4912 29.2406 46.7529C28.0648 46.0146 26.93 45.2217 25.8363 44.374C24.7425 43.5264 23.6898 42.6104 22.6781 41.626C21.6664 40.6416 20.7093 39.6025 19.807 38.5088C18.3031 36.6768 17.0316 34.8994 15.9925 33.1768C14.9535 31.4541 14.0921 29.6904 13.4085 27.8857C12.9984 26.792 12.7181 25.7939 12.5677 24.8916C12.4173 23.9893 12.3695 23.1416 12.4242 22.3486C12.4789 21.8291 12.6019 21.3506 12.7933 20.9131C12.9847 20.4756 13.2718 20.0791 13.6546 19.7236L16.6488 16.6885C16.8675 16.4697 17.0931 16.3125 17.3255 16.2168C17.558 16.1211 17.7835 16.0732 18.0023 16.0732C18.2757 16.0732 18.5287 16.1416 18.7611 16.2783C18.9935 16.415 19.1781 16.5518 19.3148 16.6885C19.5882 16.9619 19.8548 17.2285 20.1146 17.4883C20.3744 17.748 20.641 18.0146 20.9144 18.2881C21.0511 18.4248 21.1947 18.5684 21.3451 18.7188C21.4955 18.8691 21.639 19.0127 21.7757 19.1494L24.1956 21.5693C24.6605 22.0342 24.8929 22.4922 24.8929 22.9434C24.8929 23.3945 24.6605 23.8525 24.1956 24.3174C24.0589 24.4541 23.929 24.584 23.806 24.707C23.683 24.8301 23.5531 24.96 23.4164 25.0967C23.0609 25.4795 22.6986 25.8486 22.3294 26.2041C21.9603 26.5596 21.5843 26.9014 21.2015 27.2295C21.2015 27.2568 21.1947 27.2705 21.181 27.2705C21.1673 27.2705 21.1605 27.2705 21.1605 27.2705C20.7777 27.6533 20.5863 28.0225 20.5863 28.3779C20.5863 28.7334 20.6273 29.0342 20.7093 29.2803C20.7093 29.3076 20.7093 29.3281 20.7093 29.3418C20.7093 29.3555 20.723 29.3623 20.7503 29.3623C21.0511 30.1279 21.4339 30.8867 21.8988 31.6387C22.3636 32.3906 22.9242 33.1904 23.5804 34.0381H23.6214C24.8246 35.542 26.0824 36.8887 27.3949 38.0781C28.7074 39.2676 30.0746 40.3135 31.4964 41.2158C31.6605 41.3252 31.8382 41.4277 32.0296 41.5234C32.221 41.6191 32.3988 41.708 32.5628 41.79C32.7269 41.8721 32.8841 41.9541 33.0345 42.0361C33.1849 42.1182 33.3285 42.2002 33.4652 42.2822C33.4652 42.2822 33.4789 42.2891 33.5062 42.3027C33.5335 42.3164 33.5472 42.3232 33.5472 42.3232C33.7113 42.4053 33.8617 42.4668 33.9984 42.5078C34.1351 42.5488 34.2855 42.5693 34.4496 42.5693C34.805 42.5693 35.099 42.4873 35.3314 42.3232C35.5638 42.1592 35.7074 42.0361 35.7621 41.9541L38.7972 38.9189C38.9613 38.7549 39.1595 38.6045 39.3919 38.4678C39.6244 38.3311 39.8773 38.2627 40.1507 38.2627C40.4242 38.2627 40.6703 38.3311 40.889 38.4678C41.1078 38.6045 41.2855 38.7412 41.4222 38.8779C41.4222 38.9053 41.4222 38.9189 41.4222 38.9189C41.4222 38.9189 41.4359 38.9189 41.4632 38.9189L46.3441 43.7998C46.7816 44.2646 47.0003 44.7295 47.0003 45.1943C47.0003 45.6592 46.7816 46.124 46.3441 46.5889ZM32.6449 21.2002C33.8207 21.4189 34.9281 21.7949 35.9671 22.3281C37.0062 22.8613 37.9496 23.5518 38.7972 24.3994C39.6175 25.2471 40.3011 26.1904 40.848 27.2295C41.3949 28.2686 41.764 29.3623 41.9554 30.5107C42.0101 30.8115 42.1468 31.0508 42.3656 31.2285C42.5843 31.4062 42.8441 31.4951 43.1449 31.4951C43.1722 31.4951 43.1996 31.4951 43.2269 31.4951C43.2542 31.4951 43.2953 31.4951 43.3499 31.4951C43.6781 31.4404 43.9378 31.2764 44.1292 31.0029C44.3206 30.7295 44.389 30.4287 44.3343 30.1006C44.0882 28.7061 43.6371 27.3799 42.9808 26.1221C42.3246 24.8643 41.4906 23.7295 40.4789 22.7178C39.4671 21.7061 38.3324 20.8721 37.0746 20.2158C35.8167 19.5596 34.4906 19.1084 33.096 18.8623C32.7679 18.8076 32.4671 18.876 32.1937 19.0674C31.9203 19.2588 31.7562 19.5186 31.7015 19.8467C31.6468 20.1475 31.7083 20.4346 31.8861 20.708C32.0638 20.9814 32.3167 21.1455 32.6449 21.2002ZM51.9222 29.7725C51.7308 28.5967 51.4437 27.4619 51.0609 26.3682C50.7054 25.2744 50.2611 24.2148 49.7279 23.1895C49.1947 22.1641 48.5863 21.1729 47.9027 20.2158C47.1917 19.2861 46.4261 18.3975 45.6058 17.5498C44.7581 16.7295 43.8695 15.9775 42.9398 15.2939C41.9828 14.583 40.9915 13.9678 39.9662 13.4482C38.9408 12.9287 37.8812 12.4775 36.7874 12.0947C35.6937 11.7393 34.5726 11.4521 33.4242 11.2334C33.096 11.1787 32.7953 11.2471 32.5218 11.4385C32.2484 11.6299 32.0843 11.8896 32.0296 12.2178C31.9749 12.5459 32.0433 12.8467 32.2347 13.1201C32.4261 13.3936 32.6859 13.5576 33.014 13.6123C35.0921 13.9678 37.054 14.624 38.8998 15.5811C40.7455 16.5381 42.4203 17.7686 43.9242 19.2725C45.4281 20.749 46.6585 22.417 47.6156 24.2764C48.5726 26.1357 49.2152 28.0908 49.5433 30.1416C49.598 30.4424 49.7415 30.6816 49.974 30.8594C50.2064 31.0371 50.4593 31.126 50.7328 31.126C50.7874 31.126 50.8285 31.126 50.8558 31.126C50.8831 31.126 50.9105 31.126 50.9378 31.126C51.266 31.0713 51.5257 30.9072 51.7171 30.6338C51.9085 30.3604 51.9769 30.0732 51.9222 29.7725Z" fill="white"/>
</g>
<defs>
<clipPath id="clip0_2015_2701">
<rect width="42" height="42" fill="white" transform="matrix(1 0 0 -1 10 52.7002)"/>
</clipPath>
</defs>
</svg>
