<svg width="43" height="42" viewBox="0 0 43 42" fill="none" xmlns="http://www.w3.org/2000/svg">
<g clip-path="url(#clip0_16_4411)">
<path d="M31.5985 25.7701C31.7547 25.7701 31.898 25.7115 32.0282 25.5943C32.1584 25.4771 32.2235 25.3144 32.2235 25.106V19.5196C32.2235 18.8685 32.0542 18.2695 31.7157 17.7226C31.3771 17.1756 30.9083 16.7589 30.3093 16.4724L25.3479 14.2457C25.2177 14.1936 25.12 14.1024 25.0549 13.9722C24.9898 13.842 24.9573 13.7118 24.9573 13.5816V11.9017C25.5563 11.4329 26.0381 10.8339 26.4027 10.1047C26.7673 9.37547 26.9496 8.59415 26.9496 7.76075V5.10426C26.9496 4.03646 26.8324 3.1705 26.598 2.50638C26.3636 1.84226 26.2464 1.5102 26.2464 1.5102C26.1162 1.40602 26.0055 1.31487 25.9144 1.23673C25.8232 1.1586 25.7125 1.11954 25.5823 1.11954H20.5428C20.2303 1.11954 19.9308 1.17162 19.6443 1.2758C19.3578 1.37998 19.0974 1.5102 18.863 1.66646C18.863 1.66646 18.8369 1.66646 18.7848 1.66646C18.3421 1.71855 17.8082 1.95945 17.1831 2.38918C16.5581 2.8189 16.2456 3.59371 16.2456 4.7136V7.76075C16.2456 8.59415 16.4279 9.37547 16.7925 10.1047C17.1571 10.8339 17.6389 11.4329 18.2379 11.9017V13.5816C18.2379 13.7118 18.1989 13.842 18.1207 13.9722C18.0426 14.1024 17.9514 14.1936 17.8473 14.2457L12.8859 16.4724C12.2869 16.7589 11.8116 17.1691 11.46 17.703C11.1084 18.2369 10.9326 18.8424 10.9326 19.5196V25.106C10.9326 25.2883 10.9912 25.4446 11.1084 25.5748C11.2256 25.705 11.3884 25.7701 11.5967 25.7701C11.753 25.7701 11.8962 25.7115 12.0264 25.5943C12.1567 25.4771 12.2218 25.3144 12.2218 25.106V23.3481L14.2923 24.1684V26.7859L12.5343 27.0593C12.1957 27.0854 11.8962 27.2091 11.6358 27.4304C11.3753 27.6518 11.206 27.9448 11.1279 28.3094C10.9977 28.648 10.9847 28.9801 11.0889 29.3056C11.193 29.6312 11.3623 29.9111 11.5967 30.1455L15.347 33.7787L14.4876 38.8963C14.4355 39.2349 14.4681 39.5604 14.5853 39.8729C14.7024 40.1855 14.9043 40.4459 15.1908 40.6543C15.4773 40.8366 15.7898 40.9473 16.1284 40.9863C16.4669 41.0254 16.7925 40.9668 17.105 40.8105L21.7539 38.3884L26.4027 40.8105C26.5069 40.8887 26.6371 40.9473 26.7934 40.9863C26.9496 41.0254 27.1059 41.0449 27.2621 41.0449C27.4705 41.0449 27.6593 41.0189 27.8286 40.9668C27.9979 40.9147 28.1607 40.8366 28.3169 40.7324C28.6034 40.524 28.8118 40.2571 28.942 39.9315C29.0722 39.606 29.0982 39.287 29.0201 38.9744L28.1607 33.8568L31.911 30.2237C32.1454 29.9893 32.3017 29.7093 32.3798 29.3837C32.4579 29.0582 32.4579 28.7261 32.3798 28.3876C32.2756 28.075 32.0933 27.8081 31.8329 27.5867C31.5724 27.3653 31.2729 27.2156 30.9343 27.1374L29.1764 26.864V24.3247L31.2859 23.934V25.106C31.1036 25.2883 31.0711 25.4446 31.1883 25.5748C31.3055 25.705 31.4422 25.7701 31.5985 25.7701ZM17.4957 4.7136C17.4957 4.40108 17.5412 4.13412 17.6324 3.91275C17.7235 3.69138 17.8733 3.50256 18.0817 3.34629C18.1077 3.42443 18.1468 3.50256 18.1989 3.58069C18.2509 3.65882 18.3421 3.69789 18.4723 3.69789C18.6286 3.72393 18.7914 3.69789 18.9606 3.61976C19.1299 3.54162 19.2276 3.42443 19.2536 3.26816C19.3318 3.00772 19.488 2.79937 19.7224 2.64311C19.9568 2.48684 20.2303 2.40871 20.5428 2.40871H25.1917C25.2698 2.59102 25.3609 2.89053 25.4651 3.30723C25.5693 3.72393 25.6344 4.19272 25.6604 4.7136C25.2177 4.86987 24.5015 5.00009 23.5118 5.10426C22.5221 5.20844 21.4023 5.00009 20.1521 4.47921C19.9959 4.42712 19.8461 4.42712 19.7029 4.47921C19.5596 4.53129 19.4359 4.60943 19.3318 4.7136C19.3318 4.7136 19.182 4.89591 18.8825 5.26053C18.583 5.62514 18.1468 5.95069 17.5738 6.23717L17.4957 4.7136ZM17.4957 7.76075V7.60448C18.1468 7.39613 18.6872 7.10965 19.1169 6.74503C19.5466 6.38042 19.8657 6.08091 20.074 5.84651C21.272 6.28926 22.3529 6.46506 23.3165 6.3739C24.2801 6.28275 25.0354 6.15904 25.5823 6.00278V7.76075C25.5823 8.88064 25.1851 9.83775 24.3908 10.6321C23.5965 11.4264 22.6393 11.8236 21.5195 11.8236C20.4256 11.8236 19.4815 11.4264 18.6872 10.6321C17.8928 9.83775 17.4957 8.88064 17.4957 7.76075ZM24.801 15.3786C24.5926 16.0818 24.1955 16.6678 23.6095 17.1366C23.0235 17.6054 22.3529 17.8398 21.5976 17.8398C20.8423 17.8398 20.1652 17.6119 19.5662 17.1561C18.9671 16.7003 18.5504 16.1339 18.316 15.4567H18.3942C18.7588 15.2744 19.0388 15.0205 19.2341 14.6949C19.4294 14.3694 19.5271 14.0373 19.5271 13.6988V12.7221C19.8396 12.8523 20.1717 12.95 20.5233 13.0151C20.8749 13.0802 21.233 13.1128 21.5976 13.1128C21.9622 13.1128 22.3203 13.0802 22.6719 13.0151C23.0235 12.95 23.3556 12.8523 23.6681 12.7221V13.6988C23.642 14.0113 23.7332 14.3238 23.9415 14.6364C24.1499 14.9489 24.4364 15.1963 24.801 15.3786ZM30.4656 28.3094C30.5958 28.3094 30.6999 28.3485 30.7781 28.4266C30.8562 28.5048 30.9083 28.6089 30.9343 28.7392C30.9864 28.8433 30.9929 28.941 30.9539 29.0321C30.9148 29.1233 30.8562 29.2079 30.7781 29.2861L26.8715 33.1145C26.7934 33.1927 26.7348 33.2773 26.6957 33.3685C26.6566 33.4596 26.6631 33.5703 26.7152 33.7005L27.6528 39.1307C27.6528 39.2349 27.6333 39.3325 27.5942 39.4237C27.5551 39.5148 27.4965 39.5995 27.4184 39.6776C27.3403 39.7557 27.2491 39.8013 27.1449 39.8143C27.0408 39.8274 26.9236 39.8078 26.7934 39.7557L21.832 37.2165C21.7799 37.1644 21.7343 37.1383 21.6953 37.1383C21.6562 37.1383 21.5976 37.1383 21.5195 37.1383C21.4413 37.1383 21.3892 37.1383 21.3632 37.1383C21.3371 37.1383 21.2851 37.1644 21.2069 37.2165L16.3237 39.7557C16.2456 39.8078 16.1479 39.8274 16.0307 39.8143C15.9135 39.8013 15.7898 39.7557 15.6596 39.6776C15.5814 39.5995 15.5228 39.5148 15.4838 39.4237C15.4447 39.3325 15.4252 39.2349 15.4252 39.1307L16.4018 33.7005C16.4018 33.5703 16.3953 33.4596 16.3823 33.3685C16.3693 33.2773 16.3237 33.1927 16.2456 33.1145L12.2999 29.2861C12.2218 29.2079 12.1697 29.1168 12.1436 29.0126C12.1176 28.9084 12.1176 28.8173 12.1436 28.7392C12.1957 28.6089 12.2608 28.5178 12.339 28.4657C12.4171 28.4136 12.5082 28.3615 12.6124 28.3094L18.0817 27.5281C18.1858 27.5281 18.277 27.4956 18.3551 27.4304C18.4332 27.3653 18.4984 27.2937 18.5504 27.2156L21.0116 22.2542C21.0637 22.124 21.1418 22.0328 21.246 21.9807C21.3502 21.9287 21.4413 21.9026 21.5195 21.9026C21.6236 21.9026 21.7213 21.9287 21.8124 21.9807C21.9036 22.0328 21.9622 22.124 21.9882 22.2542L24.4885 27.2156C24.5145 27.2937 24.5666 27.3653 24.6447 27.4304C24.7229 27.4956 24.827 27.5281 24.9573 27.5281L30.4656 28.3094ZM30.9343 22.6449L28.8639 23.0355V21.1213C28.8639 20.965 28.8053 20.8218 28.6881 20.6916C28.5709 20.5614 28.4211 20.4962 28.2388 20.4962C28.0825 20.4962 27.9328 20.5483 27.7895 20.6525C27.6463 20.7567 27.5747 20.9129 27.5747 21.1213V23.7778V26.6296L25.5042 26.3171L23.1993 21.6682C23.043 21.3557 22.8151 21.1083 22.5156 20.926C22.2161 20.7437 21.9101 20.6525 21.5976 20.6525C21.233 20.6525 20.9009 20.7437 20.6014 20.926C20.3019 21.1083 20.1001 21.3557 19.9959 21.6682L17.6519 26.3171L15.5814 26.6296V23.7778V21.1213C15.5814 20.965 15.5293 20.8218 15.4252 20.6916C15.321 20.5614 15.1647 20.4962 14.9564 20.4962C14.748 20.4962 14.5853 20.5483 14.4681 20.6525C14.3509 20.7567 14.2923 20.9129 14.2923 21.1213V22.8793L12.2218 22.0979V19.5196C12.2218 19.1289 12.3324 18.7643 12.5538 18.4257C12.7752 18.0872 13.0682 17.8398 13.4328 17.6835L17.2613 15.9255C17.5998 16.8371 18.1663 17.5989 18.9606 18.2109C19.755 18.8229 20.66 19.1289 21.6757 19.1289C22.6654 19.1289 23.5639 18.8359 24.3713 18.2499C25.1786 17.664 25.7516 16.8892 26.0902 15.9255L29.9186 17.6835C30.2832 17.8398 30.5762 18.0872 30.7976 18.4257C31.019 18.7643 31.1297 19.1289 31.1297 19.5196L30.9343 22.6449ZM13.1203 34.2474C12.9901 34.1172 12.8403 34.0521 12.671 34.0521C12.5017 34.0521 12.352 34.1172 12.2218 34.2474L10.9326 35.5366C10.8545 35.6148 10.8024 35.6929 10.7763 35.771C10.7503 35.8492 10.7503 35.9533 10.7763 36.0835L11.4404 39.6776C11.4404 39.7297 11.4339 39.7688 11.4209 39.7948C11.4079 39.8209 11.3884 39.8339 11.3623 39.8339C11.3623 39.8339 11.3428 39.8469 11.3037 39.8729C11.2646 39.899 11.2321 39.886 11.206 39.8339L7.92451 38.154C7.84638 38.128 7.74871 38.115 7.63152 38.115C7.51432 38.115 7.41665 38.128 7.33852 38.154L4.05698 39.8339C4.03094 39.886 3.99838 39.899 3.95932 39.8729C3.92025 39.8469 3.90072 39.8339 3.90072 39.8339C3.90072 39.8339 3.8877 39.8209 3.86165 39.7948C3.83561 39.7688 3.82259 39.7297 3.82259 39.6776L4.48671 36.0835C4.48671 35.9533 4.4802 35.8492 4.46717 35.771C4.45415 35.6929 4.39555 35.6148 4.29138 35.5366L1.67396 32.9583C1.62187 32.9322 1.59583 32.8997 1.59583 32.8606C1.59583 32.8215 1.59583 32.802 1.59583 32.802C1.59583 32.7499 1.60885 32.7239 1.63489 32.7239C1.66094 32.7239 1.7 32.7239 1.75209 32.7239L5.42429 32.177C5.55451 32.177 5.65869 32.1444 5.73682 32.0793C5.81495 32.0142 5.86704 31.9295 5.89308 31.8254L7.49478 28.5438C7.46874 28.4396 7.46223 28.3745 7.47525 28.3485C7.48827 28.3224 7.49478 28.3094 7.49478 28.3094C7.49478 28.3094 7.51432 28.3159 7.55338 28.329C7.59245 28.342 7.625 28.3615 7.65105 28.3876L9.09649 31.2784C9.17462 31.4347 9.29833 31.5389 9.46761 31.591C9.6369 31.6431 9.78665 31.6431 9.91687 31.591C10.0731 31.5128 10.1773 31.3891 10.2294 31.2198C10.2815 31.0506 10.2815 30.9138 10.2294 30.8096L8.78396 27.9188C8.67978 27.6844 8.5105 27.4956 8.2761 27.3523C8.04171 27.2091 7.78127 27.1374 7.49478 27.1374C7.23435 27.1374 6.98693 27.2091 6.75253 27.3523C6.51814 27.4956 6.34885 27.6844 6.24467 27.9188L4.7211 30.9659L1.36143 31.4347C1.07495 31.4868 0.834043 31.604 0.638713 31.7863C0.443383 31.9686 0.306653 32.177 0.228521 32.4114C0.150389 32.6457 0.150389 32.8932 0.228521 33.1536C0.306653 33.414 0.436872 33.6484 0.61918 33.8568L3.04127 36.1617L2.45528 39.4432C2.42924 39.7297 2.4683 39.9901 2.57248 40.2245C2.67665 40.4589 2.83292 40.6543 3.04127 40.8105C3.14544 40.8887 3.27566 40.9473 3.43193 40.9863C3.58819 41.0254 3.71841 41.0449 3.82259 41.0449C3.95281 41.0449 4.07 41.0254 4.17418 40.9863C4.27836 40.9473 4.38253 40.9147 4.48671 40.8887L7.41665 39.287L10.3857 40.8887C10.6201 40.9928 10.874 41.0449 11.1474 41.0449C11.4209 41.0449 11.6748 40.9668 11.9092 40.8105C12.1436 40.6543 12.3064 40.4459 12.3976 40.1855C12.4887 39.925 12.5082 39.6776 12.4562 39.4432L11.9092 36.1617L12.964 35.1069C13.1463 35.0027 13.244 34.8595 13.257 34.6772C13.27 34.4949 13.2245 34.3516 13.1203 34.2474ZM42.8885 32.3332C42.8104 32.0988 42.6606 31.8905 42.4393 31.7082C42.2179 31.5259 41.99 31.4087 41.7556 31.3566L38.3959 30.8878L36.8724 27.8406C36.7421 27.6062 36.5664 27.4174 36.345 27.2742C36.1236 27.1309 35.8697 27.0593 35.5832 27.0593C35.2967 27.0593 35.0428 27.1309 34.8214 27.2742C34.6 27.4174 34.4242 27.6062 34.294 27.8406L32.8876 30.7315C32.8095 30.8878 32.803 31.0506 32.8681 31.2198C32.9332 31.3891 33.0439 31.4868 33.2002 31.5128C33.3564 31.591 33.5192 31.5975 33.6885 31.5324C33.8578 31.4673 33.9554 31.3566 33.9815 31.2003L35.4269 28.3094C35.4269 28.2834 35.4465 28.2639 35.4855 28.2508C35.5246 28.2378 35.5571 28.2313 35.5832 28.2313C35.6353 28.2313 35.6678 28.2378 35.6809 28.2508C35.6939 28.2639 35.7134 28.2834 35.7395 28.3094L37.3412 31.591C37.3932 31.6691 37.4584 31.7407 37.5365 31.8058C37.6146 31.8709 37.7188 31.9035 37.849 31.9035L41.5212 32.4895C41.5473 32.4895 41.5798 32.5025 41.6189 32.5285C41.6579 32.5546 41.6775 32.5676 41.6775 32.5676C41.6775 32.5937 41.671 32.6132 41.6579 32.6262C41.6449 32.6392 41.6254 32.6718 41.5993 32.7239L38.9429 35.2632C38.8647 35.3673 38.8126 35.4585 38.7866 35.5366C38.7606 35.6148 38.7606 35.7189 38.7866 35.8492L39.4507 39.4432C39.4507 39.4953 39.4442 39.5344 39.4312 39.5604C39.4182 39.5865 39.3856 39.5995 39.3335 39.5995C39.3335 39.5995 39.3205 39.6125 39.2945 39.6385C39.2684 39.6646 39.2293 39.6516 39.1773 39.5995L35.8957 37.9196C35.8176 37.8936 35.7264 37.8806 35.6223 37.8806C35.5181 37.8806 35.4269 37.8936 35.3488 37.9196L32.0673 39.5995C32.0412 39.6516 32.0087 39.6646 31.9696 39.6385C31.9305 39.6125 31.911 39.5995 31.911 39.5995C31.911 39.5995 31.898 39.5865 31.8719 39.5604C31.8459 39.5344 31.8329 39.4953 31.8329 39.4432L32.4579 35.8492C32.4579 35.7189 32.4514 35.6148 32.4384 35.5366C32.4254 35.4585 32.3798 35.3673 32.3017 35.2632L31.0125 34.0131C30.9083 33.8828 30.7716 33.8177 30.6023 33.8177C30.433 33.8177 30.2832 33.8828 30.153 34.0131C30.0228 34.1172 29.9577 34.2605 29.9577 34.4428C29.9577 34.6251 30.0228 34.7683 30.153 34.8725L31.2078 35.9273L30.6218 39.2088C30.5958 39.4953 30.6348 39.7557 30.739 39.9901C30.8432 40.2245 30.9995 40.4199 31.2078 40.5761C31.4422 40.7324 31.6896 40.8235 31.9501 40.8496C32.2105 40.8756 32.4579 40.8105 32.6923 40.6543L35.6613 39.0526L38.6303 40.6543C38.7606 40.6803 38.8712 40.7129 38.9624 40.7519C39.0535 40.791 39.1512 40.8105 39.2554 40.8105C39.4377 40.8105 39.5875 40.791 39.7046 40.7519C39.8218 40.7129 39.9456 40.6543 40.0758 40.5761C40.3102 40.4199 40.4729 40.2115 40.5641 39.9511C40.6553 39.6906 40.6748 39.4432 40.6227 39.2088L40.0758 35.9273L42.4588 33.5833C42.6671 33.5052 42.8104 33.3424 42.8885 33.095C42.9667 32.8476 42.9667 32.5937 42.8885 32.3332Z" fill="#835AA2"/>
</g>
<defs>
<clipPath id="clip0_16_4411">
<rect width="42.66" height="41" fill="white" transform="matrix(1 0 0 -1 0.169922 41.6211)"/>
</clipPath>
</defs>
</svg>
