<svg width="41" height="42" viewBox="0 0 41 42" fill="none" xmlns="http://www.w3.org/2000/svg">
<g clip-path="url(#clip0_16_4414)">
<path d="M29.9922 7.95703C28.3255 7.95703 26.7109 7.67057 25.1484 7.09766C23.5859 6.55078 22.2057 5.93229 21.0078 5.24219C19.8099 4.55208 18.8594 3.93359 18.1562 3.38672C17.4271 2.8138 17.0625 2.52734 17.0625 2.52734C17.0625 2.52734 16.6979 2.80078 15.9688 3.34766C15.2656 3.92057 14.3151 4.53906 13.1172 5.20312C11.9193 5.86719 10.5391 6.48568 8.97656 7.05859C7.41406 7.60547 5.79948 7.87891 4.13281 7.87891C3.0651 7.87891 2.19271 7.8138 1.51562 7.68359C0.838542 7.55339 0.5 7.48828 0.5 7.48828V18.1133C0.5 19.181 0.578125 20.2357 0.734375 21.2773C0.890625 22.319 1.13151 23.3411 1.45703 24.3438C1.78255 25.3464 2.17969 26.3294 2.64844 27.293C3.11719 28.2565 3.66406 29.181 4.28906 30.0664C4.9401 30.9518 5.68229 31.8893 6.51562 32.8789C7.34896 33.8685 8.27995 34.8385 9.30859 35.7891C10.3372 36.7396 11.4766 37.6445 12.7266 38.5039C13.9505 39.3372 15.2917 40.0534 16.75 40.6523L17.0625 40.7305L17.4141 40.5352C18.8203 39.9883 20.1484 39.2852 21.3984 38.4258C22.6224 37.5924 23.7552 36.7005 24.7969 35.75C25.8385 34.7995 26.776 33.8294 27.6094 32.8398C28.4688 31.8242 29.2109 30.8737 29.8359 29.9883C30.4609 29.1029 31.0208 28.1914 31.5156 27.2539C31.9844 26.3164 32.375 25.3398 32.6875 24.3242C33 23.3086 33.2474 22.2799 33.4297 21.2383C33.5859 20.1966 33.6641 19.1289 33.6641 18.0352V7.56641C33.638 7.56641 33.2474 7.63151 32.4922 7.76172C31.737 7.89193 30.9036 7.95703 29.9922 7.95703ZM30.1484 9.59766C30.513 9.59766 30.8646 9.57812 31.2031 9.53906C31.5417 9.5 31.8672 9.46745 32.1797 9.44141V18.0352C32.1797 18.5299 32.1602 19.0117 32.1211 19.4805C32.082 19.9492 32.0365 20.418 31.9844 20.8867H17.8047V5.14453C18.3255 5.53516 19.0156 5.97786 19.875 6.47266C20.7083 6.99349 21.6589 7.48177 22.7266 7.9375C23.7943 8.39323 24.9661 8.79036 26.2422 9.12891C27.4922 9.44141 28.7943 9.59766 30.1484 9.59766ZM2.10156 9.44141C2.4401 9.46745 2.77214 9.48698 3.09766 9.5C3.42318 9.51302 3.76823 9.54557 4.13281 9.59766C5.46094 9.59766 6.73698 9.44141 7.96094 9.12891C9.1849 8.84245 10.3177 8.47786 11.3594 8.03516C12.401 7.59245 13.3385 7.1237 14.1719 6.62891C15.0052 6.13411 15.6953 5.69141 16.2422 5.30078V20.8867H2.33594C2.25781 20.418 2.19922 19.9492 2.16016 19.4805C2.12109 19.0117 2.10156 18.5299 2.10156 18.0352V9.44141ZM5.69531 29.0898C4.9401 28.0742 4.30859 27.0065 3.80078 25.8867C3.29297 24.7669 2.89583 23.6211 2.60938 22.4492H16.2422V38.6211C15.0703 38.0482 13.9635 37.3711 12.9219 36.5898C11.8802 35.8346 10.9167 35.0273 10.0312 34.168C9.14583 33.3086 8.33854 32.4492 7.60938 31.5898C6.88021 30.7044 6.24219 29.8711 5.69531 29.0898ZM28.5859 29.0898C28.0391 29.8971 27.388 30.7435 26.6328 31.6289C25.9036 32.5143 25.0833 33.3867 24.1719 34.2461C23.2604 35.1055 22.2708 35.9258 21.2031 36.707C20.1354 37.4883 19.0026 38.1654 17.8047 38.7383V22.4492H31.6719C31.3854 23.6211 30.9883 24.7669 30.4805 25.8867C29.9727 27.0065 29.3411 28.0742 28.5859 29.0898Z" fill="#835AA2"/>
</g>
<defs>
<clipPath id="clip0_16_4414">
<rect width="40" height="41" fill="white" transform="matrix(1 0 0 -1 0.5 41.6211)"/>
</clipPath>
</defs>
</svg>
