<svg width="41" height="42" viewBox="0 0 41 42" fill="none" xmlns="http://www.w3.org/2000/svg">
<g clip-path="url(#clip0_16_4418)">
<path d="M12.9609 24.6758L11.9453 25.6523C11.8672 25.7305 11.8086 25.8151 11.7695 25.9062C11.7305 25.9974 11.7109 26.082 11.7109 26.1602V26.5898C11.7109 26.7982 11.7826 26.974 11.9258 27.1172C12.069 27.2604 12.2448 27.332 12.4531 27.332H18.4688C18.6771 27.332 18.8529 27.2604 18.9961 27.1172C19.1393 26.974 19.2109 26.7982 19.2109 26.5898V26.043C19.2109 25.8607 19.1393 25.6979 18.9961 25.5547C18.8529 25.4115 18.6771 25.3398 18.4688 25.3398H15.1484L15.2266 25.2227C16.3203 24.181 17.2122 23.2109 17.9023 22.3125C18.5924 21.4141 18.9375 20.431 18.9375 19.3633C18.9375 18.5039 18.651 17.7161 18.0781 17C17.5052 16.2839 16.5938 15.9258 15.3438 15.9258C14.7969 15.9258 14.263 16.0104 13.7422 16.1797C13.2214 16.349 12.7526 16.5898 12.3359 16.9023C12.2057 17.0065 12.1211 17.1432 12.082 17.3125C12.043 17.4818 12.0495 17.6445 12.1016 17.8008L12.2969 18.1914C12.349 18.2956 12.4141 18.3802 12.4922 18.4453C12.5703 18.5104 12.6615 18.556 12.7656 18.582C12.8698 18.6341 12.974 18.6471 13.0781 18.6211C13.1823 18.5951 13.2865 18.556 13.3906 18.5039C13.651 18.2956 13.9245 18.1458 14.2109 18.0547C14.4974 17.9635 14.7839 17.918 15.0703 17.918C15.6172 17.918 16.0273 18.0547 16.3008 18.3281C16.5742 18.6016 16.7109 18.9987 16.7109 19.5195C16.6849 20.2487 16.3659 20.9909 15.7539 21.7461C15.1419 22.5013 14.2109 23.4779 12.9609 24.6758ZM23.8984 16.082C23.8984 16.082 23.8919 16.082 23.8789 16.082C23.8659 16.082 23.8594 16.082 23.8594 16.082H23.625C23.4948 16.082 23.3776 16.1081 23.2734 16.1602C23.1693 16.2122 23.0911 16.2904 23.0391 16.3945L18.5469 22.8398C18.4948 22.8919 18.4557 22.957 18.4297 23.0352C18.4036 23.1133 18.3906 23.1784 18.3906 23.2305V23.7773C18.3906 23.9596 18.4622 24.1224 18.6055 24.2656C18.7487 24.4089 18.9245 24.4805 19.1328 24.4805H23.2344V26.5898C23.2344 26.7982 23.306 26.974 23.4492 27.1172C23.5924 27.2604 23.7682 27.332 23.9766 27.332H24.6797C24.862 27.332 25.0247 27.2604 25.168 27.1172C25.3112 26.974 25.3828 26.7982 25.3828 26.5898V24.4805H26.125C26.3333 24.4805 26.5091 24.4089 26.6523 24.2656C26.7956 24.1224 26.8672 23.9596 26.8672 23.7773V23.2695C26.8672 23.0872 26.7956 22.9245 26.6523 22.7812C26.5091 22.638 26.3333 22.5664 26.125 22.5664H25.3828V16.8242C25.3828 16.6159 25.3112 16.4401 25.168 16.2969C25.0247 16.1536 24.862 16.082 24.6797 16.082H23.9766C23.9505 16.082 23.9375 16.082 23.9375 16.082C23.9375 16.082 23.9245 16.082 23.8984 16.082ZM23.2344 22.5664H21.0078C21.2943 22.1497 21.6523 21.6289 22.082 21.0039C22.5117 20.3789 22.8958 19.806 23.2344 19.2852V22.5664ZM19.3281 38.4648C17.1667 38.4648 15.1354 38.0482 13.2344 37.2148C11.3333 36.4076 9.67318 35.2943 8.25391 33.875C6.83464 32.4557 5.72135 30.7956 4.91406 28.8945C4.08073 26.9935 3.66406 24.9622 3.66406 22.8008C3.66406 20.7695 4.04167 18.8424 4.79688 17.0195C5.52604 15.1966 6.53516 13.5885 7.82422 12.1953C9.11328 10.8021 10.6172 9.66276 12.3359 8.77734C14.0807 7.91797 15.9557 7.39714 17.9609 7.21484V9.71484C17.9609 9.79297 17.9805 9.87109 18.0195 9.94922C18.0586 10.0273 18.1172 10.0924 18.1953 10.1445C18.2474 10.1445 18.293 10.151 18.332 10.1641C18.3711 10.1771 18.4036 10.1836 18.4297 10.1836C18.4818 10.1836 18.5273 10.1771 18.5664 10.1641C18.6055 10.151 18.651 10.1315 18.7031 10.1055L24.3672 6.31641C24.4453 6.26432 24.4974 6.20573 24.5234 6.14062C24.5495 6.07552 24.5625 5.99089 24.5625 5.88672C24.5625 5.80859 24.5495 5.73698 24.5234 5.67188C24.4974 5.60677 24.4453 5.54818 24.3672 5.49609L18.7031 1.70703C18.625 1.65495 18.5404 1.62891 18.4492 1.62891C18.3581 1.62891 18.2734 1.64193 18.1953 1.66797C18.1172 1.72005 18.0586 1.78516 18.0195 1.86328C17.9805 1.94141 17.9609 2.01953 17.9609 2.09766V4.05078C15.513 4.20703 13.2344 4.81901 11.125 5.88672C8.98958 6.92839 7.13411 8.28906 5.55859 9.96875C3.98307 11.6484 2.7526 13.582 1.86719 15.7695C0.955729 17.9831 0.5 20.3268 0.5 22.8008C0.5 25.4049 0.994792 27.8398 1.98438 30.1055C2.97396 32.3971 4.32161 34.3958 6.02734 36.1016C7.73307 37.8073 9.71875 39.1549 11.9844 40.1445C14.276 41.1341 16.724 41.6289 19.3281 41.6289C20.526 41.6289 21.6979 41.5117 22.8438 41.2773C24.0156 41.069 25.1484 40.75 26.2422 40.3203C27.3359 39.8906 28.3776 39.3503 29.3672 38.6992C30.3828 38.0742 31.3203 37.3451 32.1797 36.5117L30.0312 34.207C28.5729 35.5872 26.9193 36.6419 25.0703 37.3711C23.2214 38.1003 21.3073 38.4648 19.3281 38.4648ZM35.3828 12.9961C35.0443 12.4753 34.6862 11.9609 34.3086 11.4531C33.931 10.9453 33.5339 10.4701 33.1172 10.0273L30.8125 12.1758C31.151 12.5664 31.4766 12.9635 31.7891 13.3672C32.1016 13.7708 32.401 14.194 32.6875 14.6367L35.3828 12.9961ZM34.8359 20.6914L37.9609 20.2617C37.8828 19.6367 37.7721 19.0182 37.6289 18.4062C37.4857 17.7943 37.3099 17.2018 37.1016 16.6289L34.0938 17.6445C34.276 18.1393 34.4258 18.6406 34.543 19.1484C34.6602 19.6562 34.7578 20.1706 34.8359 20.6914ZM30.1094 7.37109C29.5885 7.03255 29.0612 6.70703 28.5273 6.39453C27.9935 6.08203 27.4401 5.80859 26.8672 5.57422L25.5781 8.46484C26.0469 8.67318 26.5091 8.90104 26.9648 9.14844C27.4206 9.39583 27.8568 9.67578 28.2734 9.98828L30.1094 7.37109ZM31.3984 32.7227L33.8594 34.7539C34.25 34.2852 34.6211 33.7904 34.9727 33.2695C35.3242 32.7487 35.6432 32.2148 35.9297 31.668L33.1172 30.1445C32.8828 30.6133 32.6224 31.0625 32.3359 31.4922C32.0495 31.9219 31.737 32.332 31.3984 32.7227ZM34.9141 24.0117C34.888 24.5326 34.8294 25.0469 34.7383 25.5547C34.6471 26.0625 34.5234 26.5638 34.3672 27.0586L37.4141 27.918C37.5964 27.319 37.7396 26.7135 37.8438 26.1016C37.9479 25.4896 38.026 24.8711 38.0781 24.2461L34.9141 24.0117Z" fill="#835AA2"/>
</g>
<defs>
<clipPath id="clip0_16_4418">
<rect width="40" height="41" fill="white" transform="matrix(1 0 0 -1 0.5 41.6211)"/>
</clipPath>
</defs>
</svg>
