<svg width="28" height="22" viewBox="0 0 28 22" fill="none" xmlns="http://www.w3.org/2000/svg">
<path d="M26.3496 10.2773C26.8418 10.7695 27.1289 11.4258 27.1289 12.123V15.6094C27.1289 15.9785 26.8008 16.2656 26.4727 16.2656H25.7344C25.7754 16.5117 25.8164 16.7168 25.8164 16.9219C25.8164 18.7676 24.3398 20.2031 22.5352 20.2031C20.6895 20.2031 19.2539 18.7676 19.2539 16.9219C19.2539 16.7168 19.2539 16.5117 19.2949 16.2656H12.6094C12.6504 16.5117 12.6914 16.7168 12.6914 16.9219C12.6914 18.7676 11.2148 20.2031 9.41016 20.2031C8.30273 20.2031 7.35938 19.7109 6.78516 18.8906C6.16992 19.7109 5.22656 20.2031 4.16016 20.2031C2.31445 20.2031 0.878906 18.7676 0.878906 16.9219V3.14062C0.878906 2.44336 1.45312 1.82812 2.19141 1.82812H19.2539C19.9512 1.82812 20.5664 2.44336 20.5664 3.14062V7.11914H22.084C22.7812 7.11914 23.4375 7.36523 23.9297 7.85742L26.3496 10.2773ZM4.16016 18.2344C4.85742 18.2344 5.47266 17.6602 5.47266 16.9219C5.47266 16.2246 4.85742 15.6094 4.16016 15.6094C3.42188 15.6094 2.84766 16.2246 2.84766 16.9219C2.84766 17.6602 3.42188 18.2344 4.16016 18.2344ZM9.41016 18.2344C10.1074 18.2344 10.7227 17.6602 10.7227 16.9219C10.7227 16.2246 10.1074 15.6094 9.41016 15.6094C8.67188 15.6094 8.09766 16.2246 8.09766 16.9219C8.09766 17.6602 8.67188 18.2344 9.41016 18.2344ZM20.5664 9.04688V11.0156H24.3398L22.5352 9.25195C22.4121 9.12891 22.248 9.04688 22.084 9.04688H20.5664ZM22.5352 18.2344C23.2324 18.2344 23.8477 17.6602 23.8477 16.9219C23.8477 16.2246 23.2324 15.6094 22.5352 15.6094C21.7969 15.6094 21.2227 16.2246 21.2227 16.9219C21.2227 17.6602 21.7969 18.2344 22.5352 18.2344Z" fill="#835AA2"/>
</svg>
