<svg width="32" height="33" viewBox="0 0 32 33" fill="none" xmlns="http://www.w3.org/2000/svg">
<rect y="0.867188" width="32" height="32" rx="16" fill="#835AA2"/>
<path d="M22.3438 13.6172C22.3438 13.7734 22.3438 13.8984 22.3438 14.0547C22.3438 18.3984 19.0625 23.3672 13.0312 23.3672C11.1562 23.3672 9.4375 22.8359 8 21.8984C8.25 21.9297 8.5 21.9609 8.78125 21.9609C10.3125 21.9609 11.7188 21.4297 12.8438 20.5547C11.4062 20.5234 10.1875 19.5859 9.78125 18.2734C10 18.3047 10.1875 18.3359 10.4062 18.3359C10.6875 18.3359 11 18.2734 11.25 18.2109C9.75 17.8984 8.625 16.5859 8.625 14.9922V14.9609C9.0625 15.2109 9.59375 15.3359 10.125 15.3672C9.21875 14.7734 8.65625 13.7734 8.65625 12.6484C8.65625 12.0234 8.8125 11.4609 9.09375 10.9922C10.7188 12.9609 13.1562 14.2734 15.875 14.4297C15.8125 14.1797 15.7812 13.9297 15.7812 13.6797C15.7812 11.8672 17.25 10.3984 19.0625 10.3984C20 10.3984 20.8438 10.7734 21.4688 11.4297C22.1875 11.2734 22.9062 10.9922 23.5312 10.6172C23.2812 11.3984 22.7812 12.0234 22.0938 12.4297C22.75 12.3672 23.4062 12.1797 23.9688 11.9297C23.5312 12.5859 22.9688 13.1484 22.3438 13.6172Z" fill="white"/>
</svg>
